<mxfile host="Electron" agent="Mozilla/5.0 (Windows NT 10.0; Win64; x64) AppleWebKit/537.36 (KHTML, like Gecko) draw.io/26.2.2 Chrome/134.0.6998.178 Electron/35.1.2 Safari/537.36" version="26.2.2">
  <diagram name="Страница — 1" id="QVw71-4_B486Dh0aCF8V">
    <mxGraphModel dx="3570" dy="2123" grid="1" gridSize="10" guides="1" tooltips="1" connect="1" arrows="1" fold="1" page="1" pageScale="1" pageWidth="827" pageHeight="1169" math="0" shadow="0">
      <root>
        <mxCell id="0" />
        <mxCell id="1" parent="0" />
        <mxCell id="tGe8b2t1xnMlz81R7Yiu-1" value="цикл" style="shape=umlFrame;whiteSpace=wrap;html=1;pointerEvents=0;" vertex="1" parent="1">
          <mxGeometry x="90" y="380" width="450" height="130" as="geometry" />
        </mxCell>
        <mxCell id="tGe8b2t1xnMlz81R7Yiu-19" value="альт" style="shape=umlFrame;whiteSpace=wrap;html=1;pointerEvents=0;" vertex="1" parent="1">
          <mxGeometry x="90" y="640" width="450" height="70" as="geometry" />
        </mxCell>
        <mxCell id="tGe8b2t1xnMlz81R7Yiu-2" value="" style="shape=umlLifeline;perimeter=lifelinePerimeter;whiteSpace=wrap;html=1;container=1;dropTarget=0;collapsible=0;recursiveResize=0;outlineConnect=0;portConstraint=eastwest;newEdgeStyle={&quot;curved&quot;:0,&quot;rounded&quot;:0};participant=umlActor;" vertex="1" parent="1">
          <mxGeometry x="261.5" y="230" width="20" height="560" as="geometry" />
        </mxCell>
        <mxCell id="tGe8b2t1xnMlz81R7Yiu-6" value="" style="html=1;points=[[0,0,0,0,5],[0,1,0,0,-5],[1,0,0,0,5],[1,1,0,0,-5]];perimeter=orthogonalPerimeter;outlineConnect=0;targetShapes=umlLifeline;portConstraint=eastwest;newEdgeStyle={&quot;curved&quot;:0,&quot;rounded&quot;:0};" vertex="1" parent="tGe8b2t1xnMlz81R7Yiu-2">
          <mxGeometry x="2" y="81" width="10" height="480" as="geometry" />
        </mxCell>
        <mxCell id="tGe8b2t1xnMlz81R7Yiu-3" value="Админ" style="html=1;whiteSpace=wrap;" vertex="1" parent="1">
          <mxGeometry x="229" y="270" width="85" height="40" as="geometry" />
        </mxCell>
        <mxCell id="tGe8b2t1xnMlz81R7Yiu-4" value="Система" style="shape=umlLifeline;perimeter=lifelinePerimeter;whiteSpace=wrap;html=1;container=1;dropTarget=0;collapsible=0;recursiveResize=0;outlineConnect=0;portConstraint=eastwest;newEdgeStyle={&quot;curved&quot;:0,&quot;rounded&quot;:0};" vertex="1" parent="1">
          <mxGeometry x="450" y="270" width="100" height="520" as="geometry" />
        </mxCell>
        <mxCell id="tGe8b2t1xnMlz81R7Yiu-7" value="" style="html=1;points=[[0,0,0,0,5],[0,1,0,0,-5],[1,0,0,0,5],[1,1,0,0,-5]];perimeter=orthogonalPerimeter;outlineConnect=0;targetShapes=umlLifeline;portConstraint=eastwest;newEdgeStyle={&quot;curved&quot;:0,&quot;rounded&quot;:0};" vertex="1" parent="tGe8b2t1xnMlz81R7Yiu-4">
          <mxGeometry x="45" y="100" width="10" height="420" as="geometry" />
        </mxCell>
        <mxCell id="tGe8b2t1xnMlz81R7Yiu-5" value="База данных" style="shape=umlLifeline;perimeter=lifelinePerimeter;whiteSpace=wrap;html=1;container=1;dropTarget=0;collapsible=0;recursiveResize=0;outlineConnect=0;portConstraint=eastwest;newEdgeStyle={&quot;curved&quot;:0,&quot;rounded&quot;:0};" vertex="1" parent="1">
          <mxGeometry x="650" y="270" width="100" height="520" as="geometry" />
        </mxCell>
        <mxCell id="tGe8b2t1xnMlz81R7Yiu-8" value="" style="html=1;points=[[0,0,0,0,5],[0,1,0,0,-5],[1,0,0,0,5],[1,1,0,0,-5]];perimeter=orthogonalPerimeter;outlineConnect=0;targetShapes=umlLifeline;portConstraint=eastwest;newEdgeStyle={&quot;curved&quot;:0,&quot;rounded&quot;:0};" vertex="1" parent="tGe8b2t1xnMlz81R7Yiu-5">
          <mxGeometry x="45" y="270" width="10" height="90" as="geometry" />
        </mxCell>
        <mxCell id="tGe8b2t1xnMlz81R7Yiu-9" value="[Данные не корректны]" style="text;strokeColor=none;fillColor=none;align=left;verticalAlign=top;spacingLeft=4;spacingRight=4;overflow=hidden;rotatable=0;points=[[0,0.5],[1,0.5]];portConstraint=eastwest;whiteSpace=wrap;html=1;" vertex="1" parent="1">
          <mxGeometry x="90" y="410" width="152" height="26" as="geometry" />
        </mxCell>
        <mxCell id="tGe8b2t1xnMlz81R7Yiu-10" value="" style="endArrow=open;endFill=1;endSize=12;html=1;rounded=0;" edge="1" parent="1" source="tGe8b2t1xnMlz81R7Yiu-6" target="tGe8b2t1xnMlz81R7Yiu-7">
          <mxGeometry width="160" relative="1" as="geometry">
            <mxPoint x="300" y="430" as="sourcePoint" />
            <mxPoint x="460" y="430" as="targetPoint" />
            <Array as="points">
              <mxPoint x="410" y="410" />
            </Array>
          </mxGeometry>
        </mxCell>
        <mxCell id="tGe8b2t1xnMlz81R7Yiu-11" value="Отправка изменнений данных" style="edgeLabel;html=1;align=center;verticalAlign=middle;resizable=0;points=[];" vertex="1" connectable="0" parent="tGe8b2t1xnMlz81R7Yiu-10">
          <mxGeometry x="0.311" y="2" relative="1" as="geometry">
            <mxPoint x="-37" y="2" as="offset" />
          </mxGeometry>
        </mxCell>
        <mxCell id="tGe8b2t1xnMlz81R7Yiu-12" value="" style="endArrow=block;dashed=1;endFill=0;endSize=12;html=1;rounded=0;" edge="1" parent="1" source="tGe8b2t1xnMlz81R7Yiu-7" target="tGe8b2t1xnMlz81R7Yiu-6">
          <mxGeometry width="160" relative="1" as="geometry">
            <mxPoint x="490" y="460" as="sourcePoint" />
            <mxPoint x="480" y="530" as="targetPoint" />
            <Array as="points">
              <mxPoint x="400" y="460" />
            </Array>
          </mxGeometry>
        </mxCell>
        <mxCell id="tGe8b2t1xnMlz81R7Yiu-13" value="Ответ об корректности данных" style="edgeLabel;html=1;align=center;verticalAlign=middle;resizable=0;points=[];" vertex="1" connectable="0" parent="tGe8b2t1xnMlz81R7Yiu-12">
          <mxGeometry x="-0.3296" y="2" relative="1" as="geometry">
            <mxPoint x="-37" as="offset" />
          </mxGeometry>
        </mxCell>
        <mxCell id="tGe8b2t1xnMlz81R7Yiu-14" value="" style="endArrow=open;endFill=1;endSize=12;html=1;rounded=0;" edge="1" parent="1" source="tGe8b2t1xnMlz81R7Yiu-7">
          <mxGeometry width="160" relative="1" as="geometry">
            <mxPoint x="501" y="560" as="sourcePoint" />
            <mxPoint x="696" y="560" as="targetPoint" />
            <Array as="points">
              <mxPoint x="616" y="560" />
            </Array>
          </mxGeometry>
        </mxCell>
        <mxCell id="tGe8b2t1xnMlz81R7Yiu-18" value="Отправка данных" style="edgeLabel;html=1;align=center;verticalAlign=middle;resizable=0;points=[];" vertex="1" connectable="0" parent="tGe8b2t1xnMlz81R7Yiu-14">
          <mxGeometry x="0.2545" y="-1" relative="1" as="geometry">
            <mxPoint x="-28" as="offset" />
          </mxGeometry>
        </mxCell>
        <mxCell id="tGe8b2t1xnMlz81R7Yiu-16" value="" style="endArrow=block;dashed=1;endFill=0;endSize=12;html=1;rounded=0;" edge="1" parent="1">
          <mxGeometry width="160" relative="1" as="geometry">
            <mxPoint x="695" y="611" as="sourcePoint" />
            <mxPoint x="505" y="611" as="targetPoint" />
            <Array as="points">
              <mxPoint x="602" y="611" />
            </Array>
          </mxGeometry>
        </mxCell>
        <mxCell id="tGe8b2t1xnMlz81R7Yiu-17" value="Ответ об сохранении" style="edgeLabel;html=1;align=center;verticalAlign=middle;resizable=0;points=[];" vertex="1" connectable="0" parent="tGe8b2t1xnMlz81R7Yiu-16">
          <mxGeometry x="-0.3296" y="2" relative="1" as="geometry">
            <mxPoint x="-29" as="offset" />
          </mxGeometry>
        </mxCell>
        <mxCell id="tGe8b2t1xnMlz81R7Yiu-20" value="" style="endArrow=block;dashed=1;endFill=0;endSize=12;html=1;rounded=0;" edge="1" parent="1" target="tGe8b2t1xnMlz81R7Yiu-6">
          <mxGeometry width="160" relative="1" as="geometry">
            <mxPoint x="495" y="668" as="sourcePoint" />
            <mxPoint x="297.5" y="668" as="targetPoint" />
            <Array as="points">
              <mxPoint x="394.5" y="668" />
            </Array>
          </mxGeometry>
        </mxCell>
        <mxCell id="tGe8b2t1xnMlz81R7Yiu-21" value="Я" style="edgeLabel;html=1;align=center;verticalAlign=middle;resizable=0;points=[];" vertex="1" connectable="0" parent="tGe8b2t1xnMlz81R7Yiu-20">
          <mxGeometry x="-0.3296" y="2" relative="1" as="geometry">
            <mxPoint x="-29" as="offset" />
          </mxGeometry>
        </mxCell>
        <mxCell id="tGe8b2t1xnMlz81R7Yiu-22" value="" style="endArrow=block;dashed=1;endFill=0;endSize=12;html=1;rounded=0;" edge="1" parent="1" target="tGe8b2t1xnMlz81R7Yiu-6">
          <mxGeometry width="160" relative="1" as="geometry">
            <mxPoint x="495" y="741" as="sourcePoint" />
            <mxPoint x="297.5" y="741" as="targetPoint" />
            <Array as="points">
              <mxPoint x="394" y="741" />
            </Array>
          </mxGeometry>
        </mxCell>
        <mxCell id="tGe8b2t1xnMlz81R7Yiu-23" value="Сообщение&amp;nbsp;&lt;div&gt;об ошибке сохранения&lt;/div&gt;" style="edgeLabel;html=1;align=center;verticalAlign=middle;resizable=0;points=[];" vertex="1" connectable="0" parent="tGe8b2t1xnMlz81R7Yiu-22">
          <mxGeometry x="-0.3296" y="2" relative="1" as="geometry">
            <mxPoint x="-40" as="offset" />
          </mxGeometry>
        </mxCell>
        <mxCell id="tGe8b2t1xnMlz81R7Yiu-30" value="" style="shape=umlFrame;whiteSpace=wrap;html=1;pointerEvents=0;width=10;height=15;" vertex="1" parent="1">
          <mxGeometry x="90" y="710" width="450" height="70" as="geometry" />
        </mxCell>
        <mxCell id="tGe8b2t1xnMlz81R7Yiu-31" value="[Ответ положительный]" style="text;strokeColor=none;fillColor=none;align=left;verticalAlign=top;spacingLeft=4;spacingRight=4;overflow=hidden;rotatable=0;points=[[0,0.5],[1,0.5]];portConstraint=eastwest;whiteSpace=wrap;html=1;" vertex="1" parent="1">
          <mxGeometry x="90" y="670" width="152" height="26" as="geometry" />
        </mxCell>
        <mxCell id="tGe8b2t1xnMlz81R7Yiu-33" value="[Ответ отрицательный]" style="text;strokeColor=none;fillColor=none;align=left;verticalAlign=top;spacingLeft=4;spacingRight=4;overflow=hidden;rotatable=0;points=[[0,0.5],[1,0.5]];portConstraint=eastwest;whiteSpace=wrap;html=1;" vertex="1" parent="1">
          <mxGeometry x="90" y="710" width="152" height="26" as="geometry" />
        </mxCell>
      </root>
    </mxGraphModel>
  </diagram>
</mxfile>
